<svg viewBox="0 0 100 100" xmlns="http://www.w3.org/2000/svg">
  <defs>
    <linearGradient id="gearGradient" x1="0%" y1="0%" x2="100%" y2="100%">
      <stop offset="0%" style="stop-color:#007bff;stop-opacity:1" />
      <stop offset="100%" style="stop-color:#00c6ff;stop-opacity:1" />
    </linearGradient>
    <filter id="glow">
      <feGaussianBlur stdDeviation="2.5" result="coloredBlur"/>
      <feMerge>
        <feMergeNode in="coloredBlur"/>
        <feMergeNode in="SourceGraphic"/>
      </feMerge>
    </filter>
  </defs>
  <path fill="url(#gearGradient)" stroke="#00c6ff" stroke-width="2" filter="url(#glow)"
        d="M50 10 L55 20 L65 20 L70 10 L75 20 L85 20 L90 10 L85 30 L90 40 L85 50 L90 60 L85 70 L90 80 L85 90 L75 90 L70 80 L65 90 L55 90 L50 80 L45 90 L35 90 L30 80 L25 90 L15 90 L10 80 L15 70 L10 60 L15 50 L10 40 L15 30 L10 20 L15 10 L25 10 L30 20 L35 10 L45 10 Z">
  </path>
  <circle cx="50" cy="50" r="15" fill="#0d1a2e" stroke="#00c6ff" stroke-width="2"/>
  <circle cx="50" cy="50" r="8" fill="url(#gearGradient)" stroke="#007bff" stroke-width="1.5"/>
</svg>