<svg width="100" height="100" viewBox="0 0 100 100" fill="none" xmlns="http://www.w3.org/2000/svg">
<path d="M50 25C41.7157 25 35 31.7157 35 40C35 48.2843 41.7157 55 50 55C58.2843 55 65 48.2843 65 40C65 31.7157 58.2843 25 50 25ZM50 50C47.2386 50 45 47.7614 45 45C45 42.2386 47.2386 40 50 40C52.7614 40 55 42.2386 55 45C55 47.7614 52.7614 50 50 50Z" fill="#A7F3D0"/>
<path d="M25 75C25 66.7157 31.7157 60 40 60H60C68.2843 60 75 66.7157 75 75V80H25V75Z" fill="#A7F3D0"/>
<path d="M60 7.5L72.5 20L60 32.5" stroke="#A7F3D0" stroke-width="5" stroke-linecap="round" stroke-linejoin="round"/>
<path d="M40 7.5L27.5 20L40 32.5" stroke="#A7F3D0" stroke-width="5" stroke-linecap="round" stroke-linejoin="round"/>
</svg>