<svg xmlns="http://www.w3.org/2000/svg" viewBox="0 0 100 100" width="50" height="50" fill="none" stroke="#A7BFFF" stroke-width="5">
  <rect x="10" y="30" width="20" height="40" rx="5" ry="5"/>
  <rect x="40" y="30" width="20" height="40" rx="5" ry="5"/>
  <rect x="70" y="30" width="20" height="40" rx="5" ry="5"/>
  <line x1="30" y1="50" x2="40" y2="50"/>
  <line x1="60" y1="50" x2="70" y2="50"/>
  <path d="M20 30 L20 20 Q20 10 30 10 L70 10 Q80 10 80 20 L80 30"/>
  <path d="M20 70 L20 80 Q20 90 30 90 L70 90 Q80 90 80 80 L80 70"/>
</svg>