<svg xmlns="http://www.w3.org/2000/svg" xmlns:xlink="http://www.w3.org/1999/xlink" width="500" zoomAndPan="magnify" viewBox="0 0 375 374.999991" height="500" preserveAspectRatio="xMidYMid meet" version="1.0"><defs><g/><clipPath id="17023b338b"><path d="M 62.546875 26.683594 L 294.296875 26.683594 L 294.296875 258.433594 L 62.546875 258.433594 Z M 62.546875 26.683594 " clip-rule="nonzero"/></clipPath></defs><g fill="#ffffff" fill-opacity="1"><g transform="translate(153.482565, 334.178709)"><g><path d="M 4.921875 0.078125 C 4.109375 0.078125 3.375 -0.101562 2.71875 -0.46875 C 2.0625 -0.832031 1.546875 -1.332031 1.171875 -1.96875 C 0.796875 -2.613281 0.609375 -3.332031 0.609375 -4.125 C 0.609375 -4.914062 0.796875 -5.628906 1.171875 -6.265625 C 1.546875 -6.910156 2.0625 -7.410156 2.71875 -7.765625 C 3.382812 -8.128906 4.125 -8.3125 4.9375 -8.3125 C 5.550781 -8.3125 6.113281 -8.207031 6.625 -8 C 7.144531 -7.800781 7.585938 -7.503906 7.953125 -7.109375 L 7.40625 -6.5625 C 6.757812 -7.21875 5.941406 -7.546875 4.953125 -7.546875 C 4.304688 -7.546875 3.710938 -7.394531 3.171875 -7.09375 C 2.640625 -6.789062 2.222656 -6.378906 1.921875 -5.859375 C 1.617188 -5.347656 1.46875 -4.769531 1.46875 -4.125 C 1.46875 -3.476562 1.617188 -2.894531 1.921875 -2.375 C 2.222656 -1.863281 2.640625 -1.457031 3.171875 -1.15625 C 3.710938 -0.851562 4.304688 -0.703125 4.953125 -0.703125 C 5.941406 -0.703125 6.757812 -1.035156 7.40625 -1.703125 L 7.953125 -1.140625 C 7.585938 -0.742188 7.144531 -0.441406 6.625 -0.234375 C 6.101562 -0.0234375 5.535156 0.078125 4.921875 0.078125 Z M 4.921875 0.078125 "/></g></g></g><g fill="#ffffff" fill-opacity="1"><g transform="translate(161.950517, 334.178709)"><g><path d="M 1.96875 -4.984375 C 2.164062 -5.398438 2.457031 -5.710938 2.84375 -5.921875 C 3.226562 -6.140625 3.707031 -6.25 4.28125 -6.25 L 4.28125 -5.4375 L 4.09375 -5.4375 C 3.4375 -5.4375 2.921875 -5.234375 2.546875 -4.828125 C 2.179688 -4.429688 2 -3.875 2 -3.15625 L 2 0 L 1.171875 0 L 1.171875 -6.203125 L 1.96875 -6.203125 Z M 1.96875 -4.984375 "/></g></g></g><g fill="#ffffff" fill-opacity="1"><g transform="translate(166.673253, 334.178709)"><g><path d="M 3.328125 -6.25 C 4.140625 -6.25 4.757812 -6.046875 5.1875 -5.640625 C 5.625 -5.234375 5.84375 -4.632812 5.84375 -3.84375 L 5.84375 0 L 5.046875 0 L 5.046875 -0.96875 C 4.859375 -0.644531 4.578125 -0.390625 4.203125 -0.203125 C 3.835938 -0.0234375 3.40625 0.0625 2.90625 0.0625 C 2.21875 0.0625 1.664062 -0.101562 1.25 -0.4375 C 0.84375 -0.769531 0.640625 -1.207031 0.640625 -1.75 C 0.640625 -2.269531 0.832031 -2.691406 1.21875 -3.015625 C 1.601562 -3.335938 2.210938 -3.5 3.046875 -3.5 L 5 -3.5 L 5 -3.875 C 5 -4.40625 4.847656 -4.8125 4.546875 -5.09375 C 4.253906 -5.375 3.820312 -5.515625 3.25 -5.515625 C 2.851562 -5.515625 2.472656 -5.445312 2.109375 -5.3125 C 1.753906 -5.1875 1.445312 -5.007812 1.1875 -4.78125 L 0.8125 -5.40625 C 1.125 -5.675781 1.5 -5.882812 1.9375 -6.03125 C 2.382812 -6.175781 2.847656 -6.25 3.328125 -6.25 Z M 3.046875 -0.59375 C 3.515625 -0.59375 3.914062 -0.703125 4.25 -0.921875 C 4.59375 -1.140625 4.84375 -1.453125 5 -1.859375 L 5 -2.875 L 3.0625 -2.875 C 2 -2.875 1.46875 -2.503906 1.46875 -1.765625 C 1.46875 -1.398438 1.601562 -1.113281 1.875 -0.90625 C 2.15625 -0.695312 2.546875 -0.59375 3.046875 -0.59375 Z M 3.046875 -0.59375 "/></g></g></g><g fill="#ffffff" fill-opacity="1"><g transform="translate(173.621922, 334.178709)"><g><path d="M 3.21875 -8.09375 C 2.851562 -8.09375 2.578125 -7.992188 2.390625 -7.796875 C 2.210938 -7.597656 2.125 -7.304688 2.125 -6.921875 L 2.125 -6.203125 L 4.03125 -6.203125 L 4.03125 -5.484375 L 2.140625 -5.484375 L 2.140625 0 L 1.3125 0 L 1.3125 -5.484375 L 0.203125 -5.484375 L 0.203125 -6.203125 L 1.3125 -6.203125 L 1.3125 -6.96875 C 1.3125 -7.53125 1.472656 -7.972656 1.796875 -8.296875 C 2.117188 -8.628906 2.582031 -8.796875 3.1875 -8.796875 C 3.414062 -8.796875 3.640625 -8.757812 3.859375 -8.6875 C 4.078125 -8.625 4.265625 -8.53125 4.421875 -8.40625 L 4.140625 -7.78125 C 3.890625 -7.988281 3.582031 -8.09375 3.21875 -8.09375 Z M 3.21875 -8.09375 "/></g></g></g><g fill="#ffffff" fill-opacity="1"><g transform="translate(177.614456, 334.178709)"><g><path d="M 4.4375 -0.375 C 4.269531 -0.238281 4.070312 -0.128906 3.84375 -0.046875 C 3.613281 0.0234375 3.375 0.0625 3.125 0.0625 C 2.539062 0.0625 2.09375 -0.09375 1.78125 -0.40625 C 1.46875 -0.726562 1.3125 -1.175781 1.3125 -1.75 L 1.3125 -5.484375 L 0.203125 -5.484375 L 0.203125 -6.203125 L 1.3125 -6.203125 L 1.3125 -7.546875 L 2.140625 -7.546875 L 2.140625 -6.203125 L 4.03125 -6.203125 L 4.03125 -5.484375 L 2.140625 -5.484375 L 2.140625 -1.796875 C 2.140625 -1.421875 2.234375 -1.132812 2.421875 -0.9375 C 2.609375 -0.75 2.875 -0.65625 3.21875 -0.65625 C 3.382812 -0.65625 3.546875 -0.679688 3.703125 -0.734375 C 3.867188 -0.796875 4.015625 -0.878906 4.140625 -0.984375 Z M 4.4375 -0.375 "/></g></g></g><g fill="#ffffff" fill-opacity="1"><g transform="translate(182.396084, 334.178709)"><g><path d="M 1.171875 -6.203125 L 2 -6.203125 L 2 0 L 1.171875 0 Z M 1.59375 -7.546875 C 1.414062 -7.546875 1.269531 -7.601562 1.15625 -7.71875 C 1.039062 -7.84375 0.984375 -7.988281 0.984375 -8.15625 C 0.984375 -8.3125 1.039062 -8.445312 1.15625 -8.5625 C 1.269531 -8.675781 1.414062 -8.734375 1.59375 -8.734375 C 1.757812 -8.734375 1.898438 -8.675781 2.015625 -8.5625 C 2.140625 -8.457031 2.203125 -8.328125 2.203125 -8.171875 C 2.203125 -7.992188 2.140625 -7.84375 2.015625 -7.71875 C 1.898438 -7.601562 1.757812 -7.546875 1.59375 -7.546875 Z M 1.59375 -7.546875 "/></g></g></g><g fill="#ffffff" fill-opacity="1"><g transform="translate(185.564209, 334.178709)"><g><path d="M 4.328125 -6.25 C 5.097656 -6.25 5.710938 -6.019531 6.171875 -5.5625 C 6.640625 -5.113281 6.875 -4.457031 6.875 -3.59375 L 6.875 0 L 6.03125 0 L 6.03125 -3.515625 C 6.03125 -4.160156 5.867188 -4.648438 5.546875 -4.984375 C 5.222656 -5.316406 4.765625 -5.484375 4.171875 -5.484375 C 3.503906 -5.484375 2.972656 -5.285156 2.578125 -4.890625 C 2.191406 -4.492188 2 -3.945312 2 -3.25 L 2 0 L 1.171875 0 L 1.171875 -6.203125 L 1.96875 -6.203125 L 1.96875 -5.046875 C 2.195312 -5.429688 2.507812 -5.726562 2.90625 -5.9375 C 3.3125 -6.144531 3.785156 -6.25 4.328125 -6.25 Z M 4.328125 -6.25 "/></g></g></g><g fill="#ffffff" fill-opacity="1"><g transform="translate(193.537513, 334.178709)"><g><path d="M 6.90625 -6.203125 L 6.90625 -0.75 C 6.90625 0.300781 6.644531 1.078125 6.125 1.578125 C 5.613281 2.085938 4.84375 2.34375 3.8125 2.34375 C 3.226562 2.34375 2.679688 2.257812 2.171875 2.09375 C 1.660156 1.925781 1.242188 1.691406 0.921875 1.390625 L 1.34375 0.75 C 1.644531 1.019531 2.007812 1.226562 2.4375 1.375 C 2.863281 1.53125 3.3125 1.609375 3.78125 1.609375 C 4.5625 1.609375 5.132812 1.421875 5.5 1.046875 C 5.875 0.679688 6.0625 0.117188 6.0625 -0.640625 L 6.0625 -1.4375 C 5.800781 -1.039062 5.460938 -0.738281 5.046875 -0.53125 C 4.628906 -0.332031 4.164062 -0.234375 3.65625 -0.234375 C 3.070312 -0.234375 2.539062 -0.359375 2.0625 -0.609375 C 1.59375 -0.867188 1.222656 -1.226562 0.953125 -1.6875 C 0.679688 -2.144531 0.546875 -2.664062 0.546875 -3.25 C 0.546875 -3.832031 0.679688 -4.347656 0.953125 -4.796875 C 1.222656 -5.253906 1.59375 -5.609375 2.0625 -5.859375 C 2.53125 -6.117188 3.0625 -6.25 3.65625 -6.25 C 4.175781 -6.25 4.648438 -6.140625 5.078125 -5.921875 C 5.503906 -5.710938 5.847656 -5.40625 6.109375 -5 L 6.109375 -6.203125 Z M 3.734375 -0.984375 C 4.179688 -0.984375 4.582031 -1.078125 4.9375 -1.265625 C 5.300781 -1.460938 5.582031 -1.734375 5.78125 -2.078125 C 5.988281 -2.421875 6.09375 -2.8125 6.09375 -3.25 C 6.09375 -3.6875 5.988281 -4.078125 5.78125 -4.421875 C 5.582031 -4.765625 5.304688 -5.03125 4.953125 -5.21875 C 4.597656 -5.414062 4.191406 -5.515625 3.734375 -5.515625 C 3.285156 -5.515625 2.878906 -5.421875 2.515625 -5.234375 C 2.160156 -5.046875 1.882812 -4.773438 1.6875 -4.421875 C 1.488281 -4.078125 1.390625 -3.6875 1.390625 -3.25 C 1.390625 -2.8125 1.488281 -2.421875 1.6875 -2.078125 C 1.882812 -1.734375 2.160156 -1.460938 2.515625 -1.265625 C 2.878906 -1.078125 3.285156 -0.984375 3.734375 -0.984375 Z M 3.734375 -0.984375 "/></g></g></g><g fill="#ffffff" fill-opacity="1"><g transform="translate(201.616812, 334.178709)"><g/></g></g><g fill="#ffffff" fill-opacity="1"><g transform="translate(204.702494, 334.178709)"><g><path d="M 4.4375 -0.375 C 4.269531 -0.238281 4.070312 -0.128906 3.84375 -0.046875 C 3.613281 0.0234375 3.375 0.0625 3.125 0.0625 C 2.539062 0.0625 2.09375 -0.09375 1.78125 -0.40625 C 1.46875 -0.726562 1.3125 -1.175781 1.3125 -1.75 L 1.3125 -5.484375 L 0.203125 -5.484375 L 0.203125 -6.203125 L 1.3125 -6.203125 L 1.3125 -7.546875 L 2.140625 -7.546875 L 2.140625 -6.203125 L 4.03125 -6.203125 L 4.03125 -5.484375 L 2.140625 -5.484375 L 2.140625 -1.796875 C 2.140625 -1.421875 2.234375 -1.132812 2.421875 -0.9375 C 2.609375 -0.75 2.875 -0.65625 3.21875 -0.65625 C 3.382812 -0.65625 3.546875 -0.679688 3.703125 -0.734375 C 3.867188 -0.796875 4.015625 -0.878906 4.140625 -0.984375 Z M 4.4375 -0.375 "/></g></g></g><g fill="#ffffff" fill-opacity="1"><g transform="translate(209.484121, 334.178709)"><g><path d="M 4.328125 -6.25 C 5.097656 -6.25 5.710938 -6.019531 6.171875 -5.5625 C 6.640625 -5.113281 6.875 -4.457031 6.875 -3.59375 L 6.875 0 L 6.03125 0 L 6.03125 -3.515625 C 6.03125 -4.160156 5.867188 -4.648438 5.546875 -4.984375 C 5.222656 -5.316406 4.765625 -5.484375 4.171875 -5.484375 C 3.503906 -5.484375 2.972656 -5.285156 2.578125 -4.890625 C 2.191406 -4.492188 2 -3.945312 2 -3.25 L 2 0 L 1.171875 0 L 1.171875 -8.734375 L 2 -8.734375 L 2 -5.109375 C 2.226562 -5.472656 2.539062 -5.753906 2.9375 -5.953125 C 3.34375 -6.148438 3.804688 -6.25 4.328125 -6.25 Z M 4.328125 -6.25 "/></g></g></g><g fill="#ffffff" fill-opacity="1"><g transform="translate(217.457426, 334.178709)"><g><path d="M 6.5625 -2.84375 L 1.375 -2.84375 C 1.425781 -2.195312 1.675781 -1.675781 2.125 -1.28125 C 2.570312 -0.882812 3.132812 -0.6875 3.8125 -0.6875 C 4.195312 -0.6875 4.550781 -0.753906 4.875 -0.890625 C 5.195312 -1.023438 5.476562 -1.226562 5.71875 -1.5 L 6.1875 -0.953125 C 5.90625 -0.617188 5.554688 -0.363281 5.140625 -0.1875 C 4.734375 -0.0195312 4.285156 0.0625 3.796875 0.0625 C 3.160156 0.0625 2.59375 -0.0703125 2.09375 -0.34375 C 1.601562 -0.613281 1.222656 -0.988281 0.953125 -1.46875 C 0.679688 -1.945312 0.546875 -2.488281 0.546875 -3.09375 C 0.546875 -3.695312 0.675781 -4.238281 0.9375 -4.71875 C 1.195312 -5.195312 1.554688 -5.570312 2.015625 -5.84375 C 2.472656 -6.113281 2.988281 -6.25 3.5625 -6.25 C 4.144531 -6.25 4.660156 -6.113281 5.109375 -5.84375 C 5.566406 -5.570312 5.925781 -5.195312 6.1875 -4.71875 C 6.445312 -4.25 6.578125 -3.707031 6.578125 -3.09375 Z M 3.5625 -5.53125 C 2.96875 -5.53125 2.46875 -5.335938 2.0625 -4.953125 C 1.65625 -4.566406 1.425781 -4.070312 1.375 -3.46875 L 5.765625 -3.46875 C 5.710938 -4.070312 5.484375 -4.566406 5.078125 -4.953125 C 4.679688 -5.335938 4.175781 -5.53125 3.5625 -5.53125 Z M 3.5625 -5.53125 "/></g></g></g><g fill="#ffffff" fill-opacity="1"><g transform="translate(224.570981, 334.178709)"><g/></g></g><g fill="#ffffff" fill-opacity="1"><g transform="translate(227.656663, 334.178709)"><g><path d="M 2.21875 -7.5 L 2.21875 -4.25 L 6.484375 -4.25 L 6.484375 -3.5 L 2.21875 -3.5 L 2.21875 0 L 1.34375 0 L 1.34375 -8.25 L 7 -8.25 L 7 -7.5 Z M 2.21875 -7.5 "/></g></g></g><g fill="#ffffff" fill-opacity="1"><g transform="translate(235.111756, 334.178709)"><g><path d="M 6.75 -6.203125 L 6.75 0 L 5.953125 0 L 5.953125 -1.125 C 5.734375 -0.75 5.429688 -0.457031 5.046875 -0.25 C 4.660156 -0.0390625 4.21875 0.0625 3.71875 0.0625 C 2.914062 0.0625 2.28125 -0.160156 1.8125 -0.609375 C 1.34375 -1.066406 1.109375 -1.734375 1.109375 -2.609375 L 1.109375 -6.203125 L 1.9375 -6.203125 L 1.9375 -2.6875 C 1.9375 -2.03125 2.097656 -1.53125 2.421875 -1.1875 C 2.742188 -0.851562 3.207031 -0.6875 3.8125 -0.6875 C 4.457031 -0.6875 4.96875 -0.882812 5.34375 -1.28125 C 5.726562 -1.6875 5.921875 -2.238281 5.921875 -2.9375 L 5.921875 -6.203125 Z M 6.75 -6.203125 "/></g></g></g><g fill="#ffffff" fill-opacity="1"><g transform="translate(243.037945, 334.178709)"><g><path d="M 4.4375 -0.375 C 4.269531 -0.238281 4.070312 -0.128906 3.84375 -0.046875 C 3.613281 0.0234375 3.375 0.0625 3.125 0.0625 C 2.539062 0.0625 2.09375 -0.09375 1.78125 -0.40625 C 1.46875 -0.726562 1.3125 -1.175781 1.3125 -1.75 L 1.3125 -5.484375 L 0.203125 -5.484375 L 0.203125 -6.203125 L 1.3125 -6.203125 L 1.3125 -7.546875 L 2.140625 -7.546875 L 2.140625 -6.203125 L 4.03125 -6.203125 L 4.03125 -5.484375 L 2.140625 -5.484375 L 2.140625 -1.796875 C 2.140625 -1.421875 2.234375 -1.132812 2.421875 -0.9375 C 2.609375 -0.75 2.875 -0.65625 3.21875 -0.65625 C 3.382812 -0.65625 3.546875 -0.679688 3.703125 -0.734375 C 3.867188 -0.796875 4.015625 -0.878906 4.140625 -0.984375 Z M 4.4375 -0.375 "/></g></g></g><g fill="#ffffff" fill-opacity="1"><g transform="translate(247.819572, 334.178709)"><g><path d="M 6.75 -6.203125 L 6.75 0 L 5.953125 0 L 5.953125 -1.125 C 5.734375 -0.75 5.429688 -0.457031 5.046875 -0.25 C 4.660156 -0.0390625 4.21875 0.0625 3.71875 0.0625 C 2.914062 0.0625 2.28125 -0.160156 1.8125 -0.609375 C 1.34375 -1.066406 1.109375 -1.734375 1.109375 -2.609375 L 1.109375 -6.203125 L 1.9375 -6.203125 L 1.9375 -2.6875 C 1.9375 -2.03125 2.097656 -1.53125 2.421875 -1.1875 C 2.742188 -0.851562 3.207031 -0.6875 3.8125 -0.6875 C 4.457031 -0.6875 4.96875 -0.882812 5.34375 -1.28125 C 5.726562 -1.6875 5.921875 -2.238281 5.921875 -2.9375 L 5.921875 -6.203125 Z M 6.75 -6.203125 "/></g></g></g><g fill="#ffffff" fill-opacity="1"><g transform="translate(255.745761, 334.178709)"><g><path d="M 1.96875 -4.984375 C 2.164062 -5.398438 2.457031 -5.710938 2.84375 -5.921875 C 3.226562 -6.140625 3.707031 -6.25 4.28125 -6.25 L 4.28125 -5.4375 L 4.09375 -5.4375 C 3.4375 -5.4375 2.921875 -5.234375 2.546875 -4.828125 C 2.179688 -4.429688 2 -3.875 2 -3.15625 L 2 0 L 1.171875 0 L 1.171875 -6.203125 L 1.96875 -6.203125 Z M 1.96875 -4.984375 "/></g></g></g><g fill="#ffffff" fill-opacity="1"><g transform="translate(260.468497, 334.178709)"><g><path d="M 6.5625 -2.84375 L 1.375 -2.84375 C 1.425781 -2.195312 1.675781 -1.675781 2.125 -1.28125 C 2.570312 -0.882812 3.132812 -0.6875 3.8125 -0.6875 C 4.195312 -0.6875 4.550781 -0.753906 4.875 -0.890625 C 5.195312 -1.023438 5.476562 -1.226562 5.71875 -1.5 L 6.1875 -0.953125 C 5.90625 -0.617188 5.554688 -0.363281 5.140625 -0.1875 C 4.734375 -0.0195312 4.285156 0.0625 3.796875 0.0625 C 3.160156 0.0625 2.59375 -0.0703125 2.09375 -0.34375 C 1.601562 -0.613281 1.222656 -0.988281 0.953125 -1.46875 C 0.679688 -1.945312 0.546875 -2.488281 0.546875 -3.09375 C 0.546875 -3.695312 0.675781 -4.238281 0.9375 -4.71875 C 1.195312 -5.195312 1.554688 -5.570312 2.015625 -5.84375 C 2.472656 -6.113281 2.988281 -6.25 3.5625 -6.25 C 4.144531 -6.25 4.660156 -6.113281 5.109375 -5.84375 C 5.566406 -5.570312 5.925781 -5.195312 6.1875 -4.71875 C 6.445312 -4.25 6.578125 -3.707031 6.578125 -3.09375 Z M 3.5625 -5.53125 C 2.96875 -5.53125 2.46875 -5.335938 2.0625 -4.953125 C 1.65625 -4.566406 1.425781 -4.070312 1.375 -3.46875 L 5.765625 -3.46875 C 5.710938 -4.070312 5.484375 -4.566406 5.078125 -4.953125 C 4.679688 -5.335938 4.175781 -5.53125 3.5625 -5.53125 Z M 3.5625 -5.53125 "/></g></g></g><g fill="#ffffff" fill-opacity="1"><g transform="translate(267.582052, 334.178709)"><g/></g></g><g fill="#ffffff" fill-opacity="1"><g transform="translate(270.667734, 334.178709)"><g><path d="M 10.265625 -6.203125 L 7.921875 0 L 7.125 0 L 5.171875 -5.078125 L 3.21875 0 L 2.421875 0 L 0.09375 -6.203125 L 0.890625 -6.203125 L 2.84375 -0.9375 L 4.828125 -6.203125 L 5.546875 -6.203125 L 7.53125 -0.9375 L 9.5 -6.203125 Z M 10.265625 -6.203125 "/></g></g></g><g fill="#ffffff" fill-opacity="1"><g transform="translate(281.02007, 334.178709)"><g><path d="M 1.171875 -6.203125 L 2 -6.203125 L 2 0 L 1.171875 0 Z M 1.59375 -7.546875 C 1.414062 -7.546875 1.269531 -7.601562 1.15625 -7.71875 C 1.039062 -7.84375 0.984375 -7.988281 0.984375 -8.15625 C 0.984375 -8.3125 1.039062 -8.445312 1.15625 -8.5625 C 1.269531 -8.675781 1.414062 -8.734375 1.59375 -8.734375 C 1.757812 -8.734375 1.898438 -8.675781 2.015625 -8.5625 C 2.140625 -8.457031 2.203125 -8.328125 2.203125 -8.171875 C 2.203125 -7.992188 2.140625 -7.84375 2.015625 -7.71875 C 1.898438 -7.601562 1.757812 -7.546875 1.59375 -7.546875 Z M 1.59375 -7.546875 "/></g></g></g><g fill="#ffffff" fill-opacity="1"><g transform="translate(284.188195, 334.178709)"><g><path d="M 4.4375 -0.375 C 4.269531 -0.238281 4.070312 -0.128906 3.84375 -0.046875 C 3.613281 0.0234375 3.375 0.0625 3.125 0.0625 C 2.539062 0.0625 2.09375 -0.09375 1.78125 -0.40625 C 1.46875 -0.726562 1.3125 -1.175781 1.3125 -1.75 L 1.3125 -5.484375 L 0.203125 -5.484375 L 0.203125 -6.203125 L 1.3125 -6.203125 L 1.3125 -7.546875 L 2.140625 -7.546875 L 2.140625 -6.203125 L 4.03125 -6.203125 L 4.03125 -5.484375 L 2.140625 -5.484375 L 2.140625 -1.796875 C 2.140625 -1.421875 2.234375 -1.132812 2.421875 -0.9375 C 2.609375 -0.75 2.875 -0.65625 3.21875 -0.65625 C 3.382812 -0.65625 3.546875 -0.679688 3.703125 -0.734375 C 3.867188 -0.796875 4.015625 -0.878906 4.140625 -0.984375 Z M 4.4375 -0.375 "/></g></g></g><g fill="#ffffff" fill-opacity="1"><g transform="translate(288.969822, 334.178709)"><g><path d="M 4.328125 -6.25 C 5.097656 -6.25 5.710938 -6.019531 6.171875 -5.5625 C 6.640625 -5.113281 6.875 -4.457031 6.875 -3.59375 L 6.875 0 L 6.03125 0 L 6.03125 -3.515625 C 6.03125 -4.160156 5.867188 -4.648438 5.546875 -4.984375 C 5.222656 -5.316406 4.765625 -5.484375 4.171875 -5.484375 C 3.503906 -5.484375 2.972656 -5.285156 2.578125 -4.890625 C 2.191406 -4.492188 2 -3.945312 2 -3.25 L 2 0 L 1.171875 0 L 1.171875 -8.734375 L 2 -8.734375 L 2 -5.109375 C 2.226562 -5.472656 2.539062 -5.753906 2.9375 -5.953125 C 3.34375 -6.148438 3.804688 -6.25 4.328125 -6.25 Z M 4.328125 -6.25 "/></g></g></g><g fill="#ffffff" fill-opacity="1"><g transform="translate(296.943127, 334.178709)"><g/></g></g><g fill="#ffffff" fill-opacity="1"><g transform="translate(300.028808, 334.178709)"><g><path d="M 6.515625 -2.203125 L 1.921875 -2.203125 L 0.9375 0 L 0.03125 0 L 3.796875 -8.25 L 4.65625 -8.25 L 8.421875 0 L 7.5 0 Z M 6.203125 -2.90625 L 4.21875 -7.34375 L 2.234375 -2.90625 Z M 6.203125 -2.90625 "/></g></g></g><g fill="#ffffff" fill-opacity="1"><g transform="translate(308.473209, 334.178709)"><g><path d="M 1.34375 -8.25 L 2.21875 -8.25 L 2.21875 0 L 1.34375 0 Z M 1.34375 -8.25 "/></g></g></g><g fill="#ffffff" fill-opacity="1"><g transform="translate(37.500002, 315.788304)"><g><path d="M 31.03125 -17.890625 L 34.65625 -17.890625 L 34.65625 -4.25 C 32.988281 -2.78125 31.015625 -1.648438 28.734375 -0.859375 C 26.453125 -0.078125 24.050781 0.3125 21.53125 0.3125 C 17.945312 0.3125 14.722656 -0.46875 11.859375 -2.03125 C 8.992188 -3.601562 6.742188 -5.78125 5.109375 -8.5625 C 3.472656 -11.34375 2.65625 -14.453125 2.65625 -17.890625 C 2.65625 -21.335938 3.472656 -24.445312 5.109375 -27.21875 C 6.742188 -30 8.992188 -32.171875 11.859375 -33.734375 C 14.722656 -35.304688 17.960938 -36.09375 21.578125 -36.09375 C 24.304688 -36.09375 26.8125 -35.65625 29.09375 -34.78125 C 31.375 -33.914062 33.300781 -32.632812 34.875 -30.9375 L 32.515625 -28.53125 C 29.679688 -31.320312 26.085938 -32.71875 21.734375 -32.71875 C 18.828125 -32.71875 16.207031 -32.078125 13.875 -30.796875 C 11.539062 -29.523438 9.707031 -27.753906 8.375 -25.484375 C 7.050781 -23.222656 6.390625 -20.691406 6.390625 -17.890625 C 6.390625 -15.097656 7.050781 -12.578125 8.375 -10.328125 C 9.707031 -8.078125 11.53125 -6.300781 13.84375 -5 C 16.164062 -3.707031 18.773438 -3.0625 21.671875 -3.0625 C 25.359375 -3.0625 28.476562 -3.984375 31.03125 -5.828125 Z M 31.03125 -17.890625 "/></g></g></g><g fill="#ffffff" fill-opacity="1"><g transform="translate(77.017786, 315.788304)"><g><path d="M 27.65625 -26.890625 L 14.21875 3.21875 C 13.125 5.738281 11.859375 7.523438 10.421875 8.578125 C 8.992188 9.640625 7.273438 10.171875 5.265625 10.171875 C 3.972656 10.171875 2.765625 9.96875 1.640625 9.5625 C 0.515625 9.15625 -0.457031 8.539062 -1.28125 7.71875 L 0.40625 5.015625 C 1.769531 6.378906 3.40625 7.0625 5.3125 7.0625 C 6.539062 7.0625 7.585938 6.71875 8.453125 6.03125 C 9.328125 5.351562 10.140625 4.195312 10.890625 2.5625 L 12.0625 -0.046875 L 0.046875 -26.890625 L 3.828125 -26.890625 L 13.953125 -4.03125 L 24.078125 -26.890625 Z M 27.65625 -26.890625 "/></g></g></g><g fill="#ffffff" fill-opacity="1"><g transform="translate(104.726231, 315.788304)"><g><path d="M 14.46875 -27.09375 C 17.976562 -27.09375 20.671875 -26.210938 22.546875 -24.453125 C 24.421875 -22.703125 25.359375 -20.109375 25.359375 -16.671875 L 25.359375 0 L 21.875 0 L 21.875 -4.1875 C 21.0625 -2.789062 19.863281 -1.703125 18.28125 -0.921875 C 16.695312 -0.140625 14.8125 0.25 12.625 0.25 C 9.625 0.25 7.238281 -0.460938 5.46875 -1.890625 C 3.695312 -3.316406 2.8125 -5.207031 2.8125 -7.5625 C 2.8125 -9.84375 3.632812 -11.679688 5.28125 -13.078125 C 6.9375 -14.484375 9.570312 -15.1875 13.1875 -15.1875 L 21.734375 -15.1875 L 21.734375 -16.8125 C 21.734375 -19.132812 21.082031 -20.898438 19.78125 -22.109375 C 18.488281 -23.316406 16.597656 -23.921875 14.109375 -23.921875 C 12.398438 -23.921875 10.757812 -23.640625 9.1875 -23.078125 C 7.625 -22.515625 6.28125 -21.738281 5.15625 -20.75 L 3.53125 -23.46875 C 4.894531 -24.625 6.53125 -25.515625 8.4375 -26.140625 C 10.34375 -26.773438 12.351562 -27.09375 14.46875 -27.09375 Z M 13.1875 -2.609375 C 15.226562 -2.609375 16.984375 -3.078125 18.453125 -4.015625 C 19.921875 -4.953125 21.015625 -6.304688 21.734375 -8.078125 L 21.734375 -12.46875 L 13.296875 -12.46875 C 8.691406 -12.46875 6.390625 -10.867188 6.390625 -7.671875 C 6.390625 -6.097656 6.984375 -4.859375 8.171875 -3.953125 C 9.367188 -3.054688 11.039062 -2.609375 13.1875 -2.609375 Z M 13.1875 -2.609375 "/></g></g></g><g fill="#ffffff" fill-opacity="1"><g transform="translate(134.888566, 315.788304)"><g><path d="M 18.765625 -27.09375 C 22.140625 -27.09375 24.820312 -26.113281 26.8125 -24.15625 C 28.8125 -22.195312 29.8125 -19.34375 29.8125 -15.59375 L 29.8125 0 L 26.171875 0 L 26.171875 -15.234375 C 26.171875 -18.023438 25.472656 -20.15625 24.078125 -21.625 C 22.679688 -23.09375 20.6875 -23.828125 18.09375 -23.828125 C 15.195312 -23.828125 12.90625 -22.960938 11.21875 -21.234375 C 9.53125 -19.515625 8.6875 -17.140625 8.6875 -14.109375 L 8.6875 0 L 5.0625 0 L 5.0625 -26.890625 L 8.53125 -26.890625 L 8.53125 -21.9375 C 9.519531 -23.570312 10.890625 -24.835938 12.640625 -25.734375 C 14.398438 -26.640625 16.441406 -27.09375 18.765625 -27.09375 Z M 18.765625 -27.09375 "/></g></g></g><g fill="#ffffff" fill-opacity="1"><g transform="translate(169.49857, 315.788304)"><g><path d="M 35.734375 -35.78125 L 35.734375 0 L 32.625 0 L 9.609375 -29.03125 L 9.609375 0 L 5.828125 0 L 5.828125 -35.78125 L 8.953125 -35.78125 L 32 -6.75 L 32 -35.78125 Z M 35.734375 -35.78125 "/></g></g></g><g fill="#ffffff" fill-opacity="1"><g transform="translate(211.061247, 315.788304)"><g><path d="M 28.484375 -12.328125 L 5.984375 -12.328125 C 6.179688 -9.523438 7.25 -7.265625 9.1875 -5.546875 C 11.132812 -3.828125 13.59375 -2.96875 16.5625 -2.96875 C 18.226562 -2.96875 19.757812 -3.265625 21.15625 -3.859375 C 22.5625 -4.453125 23.773438 -5.332031 24.796875 -6.5 L 26.84375 -4.140625 C 25.644531 -2.710938 24.148438 -1.625 22.359375 -0.875 C 20.578125 -0.125 18.613281 0.25 16.46875 0.25 C 13.707031 0.25 11.257812 -0.332031 9.125 -1.5 C 7 -2.675781 5.335938 -4.304688 4.140625 -6.390625 C 2.953125 -8.472656 2.359375 -10.828125 2.359375 -13.453125 C 2.359375 -16.066406 2.925781 -18.414062 4.0625 -20.5 C 5.207031 -22.582031 6.773438 -24.203125 8.765625 -25.359375 C 10.765625 -26.515625 13.003906 -27.09375 15.484375 -27.09375 C 17.972656 -27.09375 20.207031 -26.515625 22.1875 -25.359375 C 24.164062 -24.203125 25.71875 -22.59375 26.84375 -20.53125 C 27.96875 -18.46875 28.53125 -16.109375 28.53125 -13.453125 Z M 15.484375 -23.984375 C 12.898438 -23.984375 10.726562 -23.15625 8.96875 -21.5 C 7.21875 -19.84375 6.222656 -17.6875 5.984375 -15.03125 L 25.046875 -15.03125 C 24.804688 -17.6875 23.804688 -19.84375 22.046875 -21.5 C 20.296875 -23.15625 18.109375 -23.984375 15.484375 -23.984375 Z M 15.484375 -23.984375 "/></g></g></g><g fill="#ffffff" fill-opacity="1"><g transform="translate(241.939294, 315.788304)"><g><path d="M 19.21875 -1.640625 C 18.539062 -1.023438 17.695312 -0.554688 16.6875 -0.234375 C 15.6875 0.0859375 14.640625 0.25 13.546875 0.25 C 11.023438 0.25 9.082031 -0.425781 7.71875 -1.78125 C 6.351562 -3.144531 5.671875 -5.070312 5.671875 -7.5625 L 5.671875 -23.828125 L 0.875 -23.828125 L 0.875 -26.890625 L 5.671875 -26.890625 L 5.671875 -32.765625 L 9.3125 -32.765625 L 9.3125 -26.890625 L 17.484375 -26.890625 L 17.484375 -23.828125 L 9.3125 -23.828125 L 9.3125 -7.765625 C 9.3125 -6.171875 9.707031 -4.953125 10.5 -4.109375 C 11.300781 -3.273438 12.453125 -2.859375 13.953125 -2.859375 C 14.703125 -2.859375 15.425781 -2.976562 16.125 -3.21875 C 16.820312 -3.457031 17.425781 -3.800781 17.9375 -4.25 Z M 19.21875 -1.640625 "/></g></g></g><g fill="#ffffff" fill-opacity="1"><g transform="translate(262.695067, 315.788304)"><g><path d="M 8.53125 -21.625 C 9.382812 -23.425781 10.65625 -24.785156 12.34375 -25.703125 C 14.03125 -26.628906 16.117188 -27.09375 18.609375 -27.09375 L 18.609375 -23.5625 L 17.734375 -23.625 C 14.910156 -23.625 12.695312 -22.753906 11.09375 -21.015625 C 9.488281 -19.273438 8.6875 -16.835938 8.6875 -13.703125 L 8.6875 0 L 5.0625 0 L 5.0625 -26.890625 L 8.53125 -26.890625 Z M 8.53125 -21.625 "/></g></g></g><g fill="#ffffff" fill-opacity="1"><g transform="translate(283.195237, 315.788304)"><g><path d="M 14.46875 -27.09375 C 17.976562 -27.09375 20.671875 -26.210938 22.546875 -24.453125 C 24.421875 -22.703125 25.359375 -20.109375 25.359375 -16.671875 L 25.359375 0 L 21.875 0 L 21.875 -4.1875 C 21.0625 -2.789062 19.863281 -1.703125 18.28125 -0.921875 C 16.695312 -0.140625 14.8125 0.25 12.625 0.25 C 9.625 0.25 7.238281 -0.460938 5.46875 -1.890625 C 3.695312 -3.316406 2.8125 -5.207031 2.8125 -7.5625 C 2.8125 -9.84375 3.632812 -11.679688 5.28125 -13.078125 C 6.9375 -14.484375 9.570312 -15.1875 13.1875 -15.1875 L 21.734375 -15.1875 L 21.734375 -16.8125 C 21.734375 -19.132812 21.082031 -20.898438 19.78125 -22.109375 C 18.488281 -23.316406 16.597656 -23.921875 14.109375 -23.921875 C 12.398438 -23.921875 10.757812 -23.640625 9.1875 -23.078125 C 7.625 -22.515625 6.28125 -21.738281 5.15625 -20.75 L 3.53125 -23.46875 C 4.894531 -24.625 6.53125 -25.515625 8.4375 -26.140625 C 10.34375 -26.773438 12.351562 -27.09375 14.46875 -27.09375 Z M 13.1875 -2.609375 C 15.226562 -2.609375 16.984375 -3.078125 18.453125 -4.015625 C 19.921875 -4.953125 21.015625 -6.304688 21.734375 -8.078125 L 21.734375 -12.46875 L 13.296875 -12.46875 C 8.691406 -12.46875 6.390625 -10.867188 6.390625 -7.671875 C 6.390625 -6.097656 6.984375 -4.859375 8.171875 -3.953125 C 9.367188 -3.054688 11.039062 -2.609375 13.1875 -2.609375 Z M 13.1875 -2.609375 "/></g></g></g><g clip-path="url(#17023b338b)"><path fill="#ffffff" d="M 294.515625 142.613281 C 294.515625 145.78125 294.390625 148.925781 294.136719 152.050781 C 293.148438 164.367188 290.222656 176.335938 285.398438 187.734375 C 279.558594 201.542969 271.203125 213.941406 260.558594 224.582031 C 259.105469 226.039062 257.621094 227.449219 256.105469 228.8125 C 251.359375 233.089844 246.300781 236.941406 240.957031 240.359375 L 227.222656 226.625 L 138.273438 137.664062 L 138.273438 230.914062 C 139.117188 231.296875 139.964844 231.675781 140.820312 232.035156 C 152.777344 237.09375 165.484375 239.660156 178.59375 239.660156 C 190.882812 239.660156 202.816406 237.402344 214.117188 232.957031 L 228.375 247.332031 C 226.839844 248.058594 225.289062 248.757812 223.714844 249.421875 C 209.417969 255.464844 194.238281 258.535156 178.59375 258.535156 C 164.691406 258.535156 151.148438 256.109375 138.273438 251.328125 C 136.660156 250.730469 135.058594 250.09375 133.464844 249.421875 C 128.59375 247.359375 123.902344 244.992188 119.398438 242.308594 C 111.132812 237.398438 103.511719 231.46875 96.621094 224.578125 C 85.976562 213.933594 77.621094 201.535156 71.78125 187.730469 C 65.734375 173.4375 62.664062 158.257812 62.664062 142.613281 C 62.664062 126.96875 65.734375 111.785156 71.777344 97.488281 C 77.617188 83.683594 85.972656 71.285156 96.617188 60.640625 C 107.257812 49.996094 119.65625 41.640625 133.464844 35.800781 C 147.761719 29.75 162.941406 26.683594 178.59375 26.683594 C 187.207031 26.683594 195.679688 27.617188 203.941406 29.457031 C 210.371094 30.894531 216.675781 32.886719 222.816406 35.421875 C 223.117188 35.546875 223.417969 35.675781 223.722656 35.800781 C 237.527344 41.640625 249.925781 49.996094 260.570312 60.640625 C 269.78125 69.851562 277.28125 80.378906 282.910156 91.992188 L 261.425781 91.992188 C 257.445312 85.480469 252.695312 79.460938 247.226562 73.984375 C 240 66.761719 231.8125 60.792969 222.820312 56.191406 L 222.820312 180.871094 L 203.945312 161.851562 L 203.945312 48.898438 C 195.738281 46.683594 187.253906 45.558594 178.597656 45.558594 C 165.492188 45.558594 152.785156 48.125 140.828125 53.183594 C 129.269531 58.070312 118.890625 65.066406 109.972656 73.984375 C 101.046875 82.898438 94.050781 93.28125 89.164062 104.835938 C 84.105469 116.792969 81.539062 129.5 81.539062 142.605469 C 81.539062 155.714844 84.105469 168.421875 89.164062 180.378906 C 94.050781 191.9375 101.046875 202.316406 109.964844 211.226562 C 112.949219 214.210938 116.097656 216.976562 119.398438 219.527344 L 119.398438 92.097656 L 242.742188 215.445312 C 244.273438 214.097656 245.765625 212.695312 247.21875 211.238281 C 256.132812 202.324219 263.136719 191.945312 268.023438 180.390625 C 271.855469 171.324219 274.257812 161.824219 275.195312 152.054688 L 234.089844 152.054688 L 234.089844 133.179688 L 294.140625 133.179688 C 294.390625 136.296875 294.515625 139.445312 294.515625 142.613281 Z M 294.515625 142.613281 " fill-opacity="1" fill-rule="nonzero"/></g><g fill="#ffffff" fill-opacity="1"><g transform="translate(313.393988, 282.467731)"><g><path d="M 4.71875 0.09375 C 3.914062 0.09375 3.148438 -0.03125 2.421875 -0.28125 C 1.691406 -0.539062 1.125 -0.882812 0.71875 -1.3125 L 1.171875 -2.1875 C 1.554688 -1.789062 2.070312 -1.472656 2.71875 -1.234375 C 3.363281 -0.992188 4.03125 -0.875 4.71875 -0.875 C 5.675781 -0.875 6.394531 -1.050781 6.875 -1.40625 C 7.363281 -1.757812 7.609375 -2.21875 7.609375 -2.78125 C 7.609375 -3.207031 7.472656 -3.546875 7.203125 -3.796875 C 6.941406 -4.054688 6.625 -4.253906 6.25 -4.390625 C 5.875 -4.535156 5.347656 -4.691406 4.671875 -4.859375 C 3.859375 -5.054688 3.210938 -5.25 2.734375 -5.4375 C 2.253906 -5.632812 1.84375 -5.925781 1.5 -6.3125 C 1.15625 -6.695312 0.984375 -7.222656 0.984375 -7.890625 C 0.984375 -8.429688 1.125 -8.925781 1.40625 -9.375 C 1.695312 -9.820312 2.140625 -10.175781 2.734375 -10.4375 C 3.328125 -10.707031 4.066406 -10.84375 4.953125 -10.84375 C 5.566406 -10.84375 6.164062 -10.757812 6.75 -10.59375 C 7.34375 -10.425781 7.851562 -10.191406 8.28125 -9.890625 L 7.890625 -8.984375 C 7.441406 -9.285156 6.960938 -9.507812 6.453125 -9.65625 C 5.941406 -9.800781 5.441406 -9.875 4.953125 -9.875 C 4.003906 -9.875 3.289062 -9.691406 2.8125 -9.328125 C 2.34375 -8.960938 2.109375 -8.492188 2.109375 -7.921875 C 2.109375 -7.492188 2.238281 -7.148438 2.5 -6.890625 C 2.757812 -6.628906 3.082031 -6.425781 3.46875 -6.28125 C 3.863281 -6.144531 4.394531 -6 5.0625 -5.84375 C 5.851562 -5.644531 6.488281 -5.445312 6.96875 -5.25 C 7.457031 -5.0625 7.867188 -4.773438 8.203125 -4.390625 C 8.546875 -4.015625 8.71875 -3.5 8.71875 -2.84375 C 8.71875 -2.300781 8.570312 -1.804688 8.28125 -1.359375 C 7.988281 -0.910156 7.539062 -0.554688 6.9375 -0.296875 C 6.332031 -0.0351562 5.59375 0.09375 4.71875 0.09375 Z M 4.71875 0.09375 "/></g></g></g><g fill="#ffffff" fill-opacity="1"><g transform="translate(322.83478, 282.467731)"><g><path d="M 12.921875 -10.75 L 12.921875 0 L 11.828125 0 L 11.828125 -8.59375 L 7.609375 -1.359375 L 7.0625 -1.359375 L 2.84375 -8.5625 L 2.84375 0 L 1.75 0 L 1.75 -10.75 L 2.6875 -10.75 L 7.359375 -2.78125 L 11.984375 -10.75 Z M 12.921875 -10.75 "/></g></g></g></svg>