<svg width="470" height="119" viewBox="0 0 470 119" fill="none" xmlns="http://www.w3.org/2000/svg">
<g clip-path="url(#clip0_116_47)">
<path d="M252.258 103.775C251.216 103.775 250.279 103.546 249.445 103.087C248.612 102.629 247.951 101.999 247.466 101.191C246.992 100.374 246.758 99.4571 246.758 98.4415C246.758 97.4415 246.992 96.5404 247.466 95.7332C247.951 94.9154 248.612 94.2748 249.445 93.8165C250.279 93.3477 251.216 93.1082 252.258 93.1082C253.034 93.1082 253.747 93.2436 254.404 93.504C255.07 93.7696 255.633 94.1498 256.091 94.6498L255.404 95.3582C254.581 94.5248 253.549 94.1082 252.299 94.1082C251.466 94.1082 250.706 94.2957 250.029 94.6707C249.346 95.0457 248.81 95.5665 248.424 96.2332C248.049 96.8894 247.862 97.6238 247.862 98.4415C247.862 99.2644 248.049 100.004 248.424 100.671C248.81 101.327 249.346 101.848 250.029 102.233C250.706 102.608 251.466 102.796 252.299 102.796C253.549 102.796 254.581 102.374 255.404 101.525L256.091 102.233C255.633 102.733 255.07 103.119 254.404 103.379C253.747 103.645 253.034 103.775 252.258 103.775Z" fill="white"/>
<path d="M259.251 97.3581C259.501 96.832 259.866 96.4362 260.355 96.1706C260.855 95.8945 261.47 95.7539 262.21 95.7539V96.7956L261.939 96.7747C261.116 96.7747 260.47 97.0352 260.001 97.5456C259.527 98.0456 259.293 98.7539 259.293 99.6706V103.691H258.23V95.8164H259.251V97.3581Z" fill="white"/>
<path d="M266.982 95.7539C268.023 95.7539 268.815 96.0143 269.357 96.5247C269.909 97.0404 270.19 97.806 270.19 98.8164V103.691H269.169V102.462C268.919 102.879 268.565 103.207 268.107 103.441C267.648 103.665 267.096 103.775 266.461 103.775C265.57 103.775 264.867 103.566 264.357 103.15C263.841 102.723 263.586 102.165 263.586 101.483C263.586 100.806 263.82 100.264 264.294 99.8581C264.779 99.4414 265.555 99.2331 266.628 99.2331H269.128V98.7539C269.128 98.0872 268.93 97.582 268.544 97.2331C268.169 96.8737 267.612 96.6914 266.878 96.6914C266.378 96.6914 265.898 96.7747 265.44 96.9414C264.982 97.0977 264.591 97.3164 264.273 97.6081L263.794 96.8164C264.18 96.4831 264.654 96.2279 265.211 96.0456C265.779 95.8529 266.367 95.7539 266.982 95.7539ZM266.628 102.921C267.221 102.921 267.732 102.79 268.148 102.525C268.576 102.249 268.904 101.848 269.128 101.316V100.046H266.648C265.299 100.046 264.628 100.514 264.628 101.441C264.628 101.9 264.799 102.264 265.148 102.525C265.492 102.79 265.987 102.921 266.628 102.921Z" fill="white"/>
<path d="M275.669 93.3997C275.211 93.3997 274.862 93.5247 274.628 93.7747C274.388 94.0247 274.273 94.3945 274.273 94.8789V95.8164H276.711V96.7122H274.315V103.691H273.253V96.7122H271.836V95.8164H273.253V94.8372C273.253 94.1185 273.451 93.5456 273.857 93.1289C274.273 92.7122 274.862 92.5039 275.628 92.5039C275.93 92.5039 276.221 92.5456 276.503 92.6289C276.779 92.7122 277.013 92.8372 277.211 93.0039L276.836 93.7956C276.529 93.5352 276.138 93.3997 275.669 93.3997Z" fill="white"/>
<path d="M282.285 103.212C282.087 103.395 281.848 103.535 281.556 103.629C281.264 103.723 280.957 103.775 280.639 103.775C279.889 103.775 279.311 103.577 278.91 103.171C278.52 102.77 278.327 102.207 278.327 101.483V96.7124H276.91V95.8166H278.327V94.0874H279.389V95.8166H281.785V96.7124H279.389V101.421C279.389 101.895 279.504 102.254 279.743 102.504C279.978 102.744 280.311 102.858 280.743 102.858C280.962 102.858 281.181 102.827 281.389 102.754C281.598 102.686 281.77 102.582 281.91 102.442L282.285 103.212Z" fill="white"/>
<path d="M284.214 95.8166H285.276V103.692H284.214V95.8166ZM284.755 94.0874C284.531 94.0874 284.344 94.0197 284.193 93.8791C284.052 93.728 283.984 93.5405 283.984 93.3166C283.984 93.1239 284.052 92.9572 284.193 92.8166C284.344 92.6655 284.531 92.5874 284.755 92.5874C284.974 92.5874 285.161 92.6603 285.318 92.7957C285.469 92.9364 285.547 93.1082 285.547 93.3166C285.547 93.5405 285.469 93.728 285.318 93.8791C285.161 94.0197 284.974 94.0874 284.755 94.0874Z" fill="white"/>
<path d="M292.263 95.7539C293.247 95.7539 294.034 96.0456 294.617 96.6289C295.201 97.2018 295.492 98.0352 295.492 99.1289V103.691H294.43V99.2331C294.43 98.4154 294.221 97.7904 293.805 97.3581C293.398 96.931 292.826 96.7122 292.076 96.7122C291.211 96.7122 290.534 96.9727 290.034 97.4831C289.544 97.9831 289.305 98.681 289.305 99.5664V103.691H288.242V95.8164H289.263V97.2747C289.555 96.7904 289.956 96.4154 290.471 96.1497C290.982 95.8893 291.581 95.7539 292.263 95.7539Z" fill="white"/>
<path d="M305.669 95.8164V102.733C305.669 104.066 305.341 105.051 304.69 105.691C304.034 106.342 303.049 106.671 301.732 106.671C301.008 106.671 300.32 106.556 299.669 106.337C299.013 106.129 298.482 105.837 298.065 105.462L298.607 104.65C298.982 104.983 299.44 105.243 299.982 105.441C300.534 105.634 301.112 105.733 301.711 105.733C302.711 105.733 303.44 105.493 303.898 105.025C304.367 104.566 304.607 103.842 304.607 102.858V101.858C304.284 102.358 303.857 102.743 303.315 103.004C302.784 103.27 302.195 103.4 301.544 103.4C300.805 103.4 300.133 103.243 299.523 102.921C298.924 102.587 298.451 102.129 298.107 101.546C297.758 100.962 297.586 100.306 297.586 99.5664C297.586 98.8164 297.758 98.1602 298.107 97.5872C298.451 97.0039 298.924 96.556 299.523 96.2331C300.117 95.9154 300.794 95.7539 301.544 95.7539C302.211 95.7539 302.815 95.8945 303.357 96.1706C303.898 96.4362 304.326 96.8164 304.648 97.3164V95.8164H305.669ZM301.648 102.441C302.216 102.441 302.732 102.327 303.19 102.087C303.648 101.837 304.003 101.499 304.253 101.066C304.513 100.624 304.648 100.124 304.648 99.5664C304.648 98.9987 304.513 98.4987 304.253 98.0664C304.003 97.6393 303.648 97.306 303.19 97.0664C302.742 96.8164 302.232 96.6914 301.648 96.6914C301.076 96.6914 300.565 96.8112 300.107 97.0456C299.659 97.2852 299.305 97.6237 299.044 98.0664C298.794 98.4987 298.669 98.9987 298.669 99.5664C298.669 100.124 298.794 100.624 299.044 101.066C299.305 101.499 299.659 101.837 300.107 102.087C300.565 102.327 301.076 102.441 301.648 102.441Z" fill="white"/>
<path d="M316.711 103.212C316.513 103.395 316.273 103.535 315.982 103.629C315.69 103.723 315.383 103.775 315.065 103.775C314.315 103.775 313.737 103.577 313.336 103.171C312.945 102.77 312.753 102.207 312.753 101.483V96.7124H311.336V95.8166H312.753V94.0874H313.815V95.8166H316.211V96.7124H313.815V101.421C313.815 101.895 313.93 102.254 314.169 102.504C314.404 102.744 314.737 102.858 315.169 102.858C315.388 102.858 315.607 102.827 315.815 102.754C316.023 102.686 316.195 102.582 316.336 102.442L316.711 103.212Z" fill="white"/>
<path d="M322.665 95.7541C323.65 95.7541 324.436 96.0457 325.02 96.6291C325.603 97.202 325.895 98.0353 325.895 99.1291V103.692H324.832V99.2332C324.832 98.4155 324.624 97.7905 324.207 97.3582C323.801 96.9312 323.228 96.7124 322.478 96.7124C321.613 96.7124 320.936 96.9728 320.436 97.4832C319.947 97.9832 319.707 98.6812 319.707 99.5666V103.692H318.645V92.5874H319.707V97.1916C319.999 96.7332 320.395 96.3791 320.895 96.1291C321.405 95.8791 321.999 95.7541 322.665 95.7541Z" fill="white"/>
<path d="M335.63 100.087H329.047C329.099 100.91 329.411 101.566 329.984 102.066C330.552 102.566 331.276 102.816 332.151 102.816C332.635 102.816 333.078 102.733 333.484 102.566C333.901 102.389 334.26 102.129 334.568 101.796L335.151 102.483C334.802 102.9 334.365 103.223 333.839 103.441C333.323 103.665 332.755 103.775 332.13 103.775C331.307 103.775 330.589 103.603 329.964 103.254C329.339 102.91 328.849 102.431 328.505 101.816C328.156 101.207 327.984 100.52 327.984 99.7539C327.984 98.9935 328.151 98.306 328.484 97.6914C328.818 97.082 329.276 96.6081 329.859 96.2747C330.443 95.931 331.099 95.7539 331.839 95.7539C332.557 95.7539 333.214 95.931 333.797 96.2747C334.38 96.6081 334.828 97.082 335.151 97.6914C335.484 98.2904 335.651 98.9779 335.651 99.7539L335.63 100.087ZM331.839 96.6706C331.073 96.6706 330.432 96.9154 329.922 97.3997C329.406 97.8893 329.115 98.5195 329.047 99.2956H334.63C334.557 98.5195 334.266 97.8893 333.755 97.3997C333.24 96.9154 332.599 96.6706 331.839 96.6706Z" fill="white"/>
<path d="M343.073 94.1707V98.2749H348.49V99.2332H343.073V103.692H341.969V93.2124H349.156V94.1707H343.073Z" fill="white"/>
<path d="M358.319 95.8164V103.691H357.298V102.254C357.017 102.728 356.632 103.103 356.132 103.379C355.642 103.645 355.09 103.775 354.465 103.775C353.434 103.775 352.621 103.493 352.027 102.921C351.444 102.337 351.152 101.493 351.152 100.379V95.8164H352.215V100.275C352.215 101.108 352.413 101.743 352.819 102.171C353.236 102.603 353.819 102.816 354.569 102.816C355.402 102.816 356.053 102.566 356.527 102.066C357.012 101.556 357.257 100.848 357.257 99.9414V95.8164H358.319Z" fill="white"/>
<path d="M365.434 103.212C365.236 103.395 364.996 103.535 364.704 103.629C364.413 103.723 364.105 103.775 363.788 103.775C363.038 103.775 362.46 103.577 362.059 103.171C361.668 102.77 361.475 102.207 361.475 101.483V96.7124H360.059V95.8166H361.475V94.0874H362.538V95.8166H364.934V96.7124H362.538V101.421C362.538 101.895 362.652 102.254 362.892 102.504C363.126 102.744 363.46 102.858 363.892 102.858C364.111 102.858 364.329 102.827 364.538 102.754C364.746 102.686 364.918 102.582 365.059 102.442L365.434 103.212Z" fill="white"/>
<path d="M374.471 95.8164V103.691H373.451V102.254C373.169 102.728 372.784 103.103 372.284 103.379C371.794 103.645 371.242 103.775 370.617 103.775C369.586 103.775 368.773 103.493 368.18 102.921C367.596 102.337 367.305 101.493 367.305 100.379V95.8164H368.367V100.275C368.367 101.108 368.565 101.743 368.971 102.171C369.388 102.603 369.971 102.816 370.721 102.816C371.555 102.816 372.206 102.566 372.68 102.066C373.164 101.556 373.409 100.848 373.409 99.9414V95.8164H374.471Z" fill="white"/>
<path d="M378.462 97.3581C378.712 96.832 379.077 96.4362 379.566 96.1706C380.066 95.8945 380.681 95.7539 381.421 95.7539V96.7956L381.15 96.7747C380.327 96.7747 379.681 97.0352 379.212 97.5456C378.738 98.0456 378.504 98.7539 378.504 99.6706V103.691H377.441V95.8164H378.462V97.3581Z" fill="white"/>
<path d="M390.298 100.087H383.715C383.767 100.91 384.079 101.566 384.652 102.066C385.22 102.566 385.944 102.816 386.819 102.816C387.303 102.816 387.746 102.733 388.152 102.566C388.569 102.389 388.928 102.129 389.236 101.796L389.819 102.483C389.47 102.9 389.033 103.223 388.507 103.441C387.991 103.665 387.423 103.775 386.798 103.775C385.975 103.775 385.257 103.603 384.632 103.254C384.007 102.91 383.517 102.431 383.173 101.816C382.824 101.207 382.652 100.52 382.652 99.7539C382.652 98.9935 382.819 98.306 383.152 97.6914C383.486 97.082 383.944 96.6081 384.527 96.2747C385.111 95.931 385.767 95.7539 386.507 95.7539C387.225 95.7539 387.882 95.931 388.465 96.2747C389.048 96.6081 389.496 97.082 389.819 97.6914C390.152 98.2904 390.319 98.9779 390.319 99.7539L390.298 100.087ZM386.507 96.6706C385.741 96.6706 385.1 96.9154 384.59 97.3997C384.074 97.8893 383.783 98.5195 383.715 99.2956H389.298C389.225 98.5195 388.934 97.8893 388.423 97.3997C387.908 96.9154 387.267 96.6706 386.507 96.6706Z" fill="white"/>
<path d="M407.967 95.8164L404.988 103.691H403.988L401.509 97.2331L399.009 103.691H398.009L395.051 95.8164H396.072L398.53 102.504L401.072 95.8164H401.988L404.488 102.504L407.009 95.8164H407.967Z" fill="white"/>
<path d="M409.561 95.8166H410.624V103.692H409.561V95.8166ZM410.103 94.0874C409.879 94.0874 409.691 94.0197 409.54 93.8791C409.4 93.728 409.332 93.5405 409.332 93.3166C409.332 93.1239 409.4 92.9572 409.54 92.8166C409.691 92.6655 409.879 92.5874 410.103 92.5874C410.322 92.5874 410.509 92.6603 410.665 92.7957C410.816 92.9364 410.895 93.1082 410.895 93.3166C410.895 93.5405 410.816 93.728 410.665 93.8791C410.509 94.0197 410.322 94.0874 410.103 94.0874Z" fill="white"/>
<path d="M417.734 103.212C417.536 103.395 417.297 103.535 417.005 103.629C416.714 103.723 416.406 103.775 416.089 103.775C415.339 103.775 414.76 103.577 414.359 103.171C413.969 102.77 413.776 102.207 413.776 101.483V96.7124H412.359V95.8166H413.776V94.0874H414.839V95.8166H417.234V96.7124H414.839V101.421C414.839 101.895 414.953 102.254 415.193 102.504C415.427 102.744 415.76 102.858 416.193 102.858C416.411 102.858 416.63 102.827 416.839 102.754C417.047 102.686 417.219 102.582 417.359 102.442L417.734 103.212Z" fill="white"/>
<path d="M423.689 95.7541C424.673 95.7541 425.46 96.0457 426.043 96.6291C426.626 97.202 426.918 98.0353 426.918 99.1291V103.692H425.855V99.2332C425.855 98.4155 425.647 97.7905 425.23 97.3582C424.824 96.9312 424.251 96.7124 423.501 96.7124C422.637 96.7124 421.96 96.9728 421.46 97.4832C420.97 97.9832 420.73 98.6812 420.73 99.5666V103.692H419.668V92.5874H420.73V97.1916C421.022 96.7332 421.418 96.3791 421.918 96.1291C422.428 95.8791 423.022 95.7541 423.689 95.7541Z" fill="white"/>
<path d="M440.536 100.9H434.682L433.432 103.692H432.266L437.078 93.2124H438.161L442.953 103.692H441.786L440.536 100.9ZM440.12 99.9832L437.599 94.3582L435.099 99.9832H440.12Z" fill="white"/>
<path d="M444.684 93.2124H445.788V103.692H444.684V93.2124Z" fill="white"/>
<mask id="mask0_116_47" style="mask-type:luminance" maskUnits="userSpaceOnUse" x="0" y="0" width="119" height="119">
<path d="M0.59375 0.229248H118.594V118.229H0.59375V0.229248Z" fill="white"/>
</mask>
<g mask="url(#mask0_116_47)">
<path d="M118.203 59.0001C118.203 60.6095 118.141 62.2032 118.01 63.7865C117.51 70.0313 116.026 76.099 113.583 81.8803C110.62 88.8803 106.385 95.1615 100.99 100.563C100.25 101.297 99.5 102.011 98.7292 102.703C96.3229 104.875 93.7604 106.823 91.0469 108.557L84.0885 101.594L38.9896 56.4897V103.771C39.4167 103.964 39.849 104.156 40.2813 104.339C46.3438 106.901 52.7865 108.203 59.4323 108.203C65.6615 108.203 71.7135 107.057 77.4427 104.807L84.6719 112.094C83.8906 112.464 83.1042 112.818 82.3073 113.151C75.0625 116.219 67.3646 117.771 59.4323 117.771C52.3802 117.771 45.5156 116.542 38.9896 114.12C38.1719 113.818 37.3594 113.495 36.5521 113.151C34.0833 112.109 31.7031 110.906 29.4219 109.547C25.2292 107.057 21.3646 104.052 17.8698 100.557C12.474 95.1615 8.23958 88.8751 5.28125 81.8751C2.21354 74.6303 0.65625 66.9324 0.65625 59.0001C0.65625 51.0678 2.21354 43.3699 5.27604 36.1251C8.23958 29.1251 12.474 22.8386 17.8698 17.4428C23.2656 12.047 29.5521 7.81258 36.5521 4.84904C43.7969 1.78133 51.4948 0.229248 59.4323 0.229248C63.7969 0.229248 68.0938 0.697999 72.2813 1.6355C75.5417 2.36467 78.7396 3.36987 81.849 4.65633C82.0052 4.71883 82.1563 4.78654 82.3125 4.84904C89.3125 7.81258 95.599 12.047 100.995 17.4428C105.661 22.1147 109.464 27.448 112.318 33.3386H101.427C99.4115 30.0365 97 26.9845 94.2292 24.2084C90.5625 20.547 86.4115 17.5209 81.8542 15.1876V78.3959L72.2865 68.7553V11.4897C68.125 10.3647 63.8229 9.79696 59.4323 9.79696C52.7865 9.79696 46.3438 11.099 40.2813 13.6615C34.4219 16.1407 29.1615 19.6876 24.6406 24.2084C20.1146 28.7292 16.5677 33.9897 14.0885 39.849C11.526 45.9115 10.224 52.3542 10.224 59.0001C10.224 65.6459 11.526 72.0886 14.0885 78.1511C16.5677 84.0105 20.1146 89.2709 24.6354 93.7865C26.151 95.3022 27.75 96.7032 29.4219 97.9949V33.3907L91.9531 95.9272C92.7292 95.2449 93.4896 94.5313 94.224 93.797C98.7448 89.2761 102.292 84.0157 104.771 78.1563C106.714 73.5574 107.932 68.7397 108.406 63.7865H87.5677V54.2188H118.016C118.141 55.8022 118.203 57.3959 118.203 59.0001Z" fill="white"/>
</g>
<path d="M166.046 58.3844H170.316V74.5094C168.358 76.2334 166.03 77.5615 163.337 78.4886C160.639 79.4053 157.801 79.8636 154.816 79.8636C150.592 79.8636 146.796 78.9417 143.421 77.0928C140.046 75.249 137.389 72.6865 135.462 69.4053C133.53 66.1292 132.566 62.4574 132.566 58.3844C132.566 54.3324 133.53 50.6657 135.462 47.3844C137.389 44.1084 140.046 41.5459 143.421 39.6969C146.796 37.8376 150.613 36.9053 154.879 36.9053C158.098 36.9053 161.056 37.4209 163.754 38.4469C166.447 39.4782 168.717 40.999 170.566 43.0094L167.796 45.8428C164.447 42.5511 160.202 40.9053 155.066 40.9053C151.65 40.9053 148.556 41.6657 145.796 43.1761C143.046 44.6761 140.884 46.7699 139.316 49.4469C137.743 52.1136 136.962 55.0928 136.962 58.3844C136.962 61.6917 137.743 64.6709 139.316 67.3219C140.884 69.9782 143.035 72.0667 145.775 73.5928C148.509 75.124 151.587 75.8844 155.004 75.8844C159.348 75.8844 163.03 74.8011 166.046 72.6344V58.3844Z" fill="white"/>
<path d="M208.704 47.7803L192.829 83.3011C191.538 86.2855 190.043 88.3949 188.35 89.6344C186.668 90.8844 184.642 91.5094 182.267 91.5094C180.736 91.5094 179.309 91.2646 177.975 90.7803C176.652 90.3063 175.517 89.5824 174.559 88.6136L176.538 85.4261C178.147 87.0355 180.079 87.8428 182.329 87.8428C183.772 87.8428 185.007 87.4365 186.038 86.6344C187.064 85.8271 188.022 84.4574 188.913 82.5303L190.288 79.4469L176.121 47.7803H180.579L192.538 74.7386L204.475 47.7803H208.704Z" fill="white"/>
<path d="M225.845 47.5303C229.98 47.5303 233.158 48.5667 235.366 50.6344C237.574 52.7074 238.678 55.7751 238.678 59.8428V79.5094H234.574V74.5719C233.616 76.2126 232.199 77.499 230.324 78.4261C228.46 79.3428 226.241 79.8011 223.658 79.8011C220.116 79.8011 217.293 78.9626 215.199 77.2803C213.116 75.5876 212.074 73.3532 212.074 70.5719C212.074 67.8792 213.043 65.7126 214.991 64.0719C216.949 62.4209 220.059 61.5928 224.324 61.5928H234.408V59.6553C234.408 56.9209 233.642 54.8428 232.116 53.4261C230.585 51.999 228.35 51.2803 225.408 51.2803C223.392 51.2803 221.46 51.6136 219.616 52.2803C217.767 52.9365 216.178 53.8428 214.845 55.0094L212.928 51.8219C214.538 50.4469 216.47 49.3949 218.72 48.6553C220.97 47.9053 223.345 47.5303 225.845 47.5303ZM224.324 76.4261C226.741 76.4261 228.809 75.8792 230.533 74.7803C232.267 73.6709 233.559 72.0667 234.408 69.9678V64.7803H224.449C219.017 64.7803 216.303 66.6761 216.303 70.4678C216.303 72.3167 217.001 73.7751 218.408 74.8428C219.824 75.9001 221.793 76.4261 224.324 76.4261Z" fill="white"/>
<path d="M266.503 47.5303C270.487 47.5303 273.654 48.6917 276.003 51.0094C278.346 53.3167 279.523 56.6865 279.523 61.1136V79.5094H275.253V61.5303C275.253 58.2386 274.424 55.7282 272.773 53.9886C271.117 52.2542 268.763 51.3844 265.711 51.3844C262.294 51.3844 259.586 52.4053 257.586 54.4469C255.596 56.4782 254.607 59.2803 254.607 62.8636V79.5094H250.336V47.7803H254.44V53.6344C255.607 51.7074 257.221 50.2074 259.294 49.1344C261.362 48.0667 263.763 47.5303 266.503 47.5303Z" fill="white"/>
<path d="M327.37 37.2803V79.5094H323.703L296.536 45.2386V79.5094H292.078V37.2803H295.766L322.974 71.5511V37.2803H327.37Z" fill="white"/>
<path d="M367.861 64.9678H341.319C341.553 68.2751 342.819 70.9417 345.111 72.9678C347.402 74.999 350.298 76.0094 353.798 76.0094C355.767 76.0094 357.579 75.6657 359.236 74.9678C360.887 74.2594 362.319 73.2178 363.527 71.8428L365.923 74.6136C364.517 76.3115 362.762 77.6032 360.652 78.4886C358.538 79.3636 356.22 79.8011 353.694 79.8011C350.428 79.8011 347.538 79.1136 345.027 77.7386C342.512 76.3532 340.548 74.4261 339.132 71.9678C337.725 69.5094 337.027 66.7334 337.027 63.6344C337.027 60.5407 337.699 57.7699 339.048 55.3219C340.392 52.8636 342.241 50.9574 344.59 49.5928C346.949 48.2178 349.595 47.5303 352.527 47.5303C355.47 47.5303 358.111 48.2178 360.444 49.5928C362.777 50.9574 364.6 52.8532 365.923 55.2803C367.257 57.7126 367.923 60.499 367.923 63.6344L367.861 64.9678ZM352.527 51.2178C349.47 51.2178 346.908 52.1969 344.84 54.1553C342.767 56.1032 341.595 58.6449 341.319 61.7803H363.819C363.538 58.6449 362.361 56.1032 360.277 54.1553C358.204 52.1969 355.621 51.2178 352.527 51.2178Z" fill="white"/>
<path d="M393.385 77.5719C392.578 78.2959 391.578 78.8532 390.385 79.2386C389.203 79.6136 387.969 79.8011 386.677 79.8011C383.703 79.8011 381.411 79.0042 379.802 77.4053C378.188 75.7959 377.385 73.5199 377.385 70.5719V51.3844H371.719V47.7803H377.385V40.8428H381.677V47.7803H391.323V51.3844H381.677V70.3428C381.677 72.2334 382.146 73.6709 383.094 74.6553C384.036 75.6449 385.396 76.1344 387.177 76.1344C388.052 76.1344 388.896 75.999 389.719 75.7178C390.552 75.4261 391.266 75.0251 391.865 74.5094L393.385 77.5719Z" fill="white"/>
<path d="M405.28 53.9886C406.28 51.8636 407.77 50.2594 409.759 49.1761C411.759 48.0824 414.223 47.5303 417.155 47.5303V51.6969L416.134 51.6344C412.801 51.6344 410.181 52.6657 408.28 54.7178C406.389 56.7594 405.447 59.6344 405.447 63.3428V79.5094H401.176V47.7803H405.28V53.9886Z" fill="white"/>
<path d="M436.474 47.5303C440.609 47.5303 443.786 48.5667 445.995 50.6344C448.203 52.7074 449.307 55.7751 449.307 59.8428V79.5094H445.203V74.5719C444.245 76.2126 442.828 77.499 440.953 78.4261C439.089 79.3428 436.87 79.8011 434.286 79.8011C430.745 79.8011 427.922 78.9626 425.828 77.2803C423.745 75.5876 422.703 73.3532 422.703 70.5719C422.703 67.8792 423.672 65.7126 425.62 64.0719C427.578 62.4209 430.687 61.5928 434.953 61.5928H445.036V59.6553C445.036 56.9209 444.271 54.8428 442.745 53.4261C441.214 51.999 438.979 51.2803 436.036 51.2803C434.021 51.2803 432.089 51.6136 430.245 52.2803C428.396 52.9365 426.807 53.8428 425.474 55.0094L423.557 51.8219C425.167 50.4469 427.099 49.3949 429.349 48.6553C431.599 47.9053 433.974 47.5303 436.474 47.5303ZM434.953 76.4261C437.37 76.4261 439.438 75.8792 441.161 74.7803C442.896 73.6709 444.188 72.0667 445.036 69.9678V64.7803H435.078C429.646 64.7803 426.932 66.6761 426.932 70.4678C426.932 72.3167 427.63 73.7751 429.036 74.8428C430.453 75.9001 432.422 76.4261 434.953 76.4261Z" fill="white"/>
<path d="M452.081 32.4233C451.289 32.4233 450.523 32.2983 449.789 32.0483C449.065 31.7983 448.503 31.465 448.102 31.0483L448.56 30.1733C448.945 30.564 449.461 30.8765 450.102 31.1108C450.737 31.3504 451.398 31.465 452.081 31.465C453.039 31.465 453.753 31.2931 454.227 30.9442C454.711 30.6004 454.956 30.1421 454.956 29.5692C454.956 29.1421 454.82 28.7983 454.56 28.5483C454.31 28.2983 453.997 28.1056 453.622 27.965C453.247 27.8296 452.716 27.6733 452.039 27.5067C451.232 27.2983 450.586 27.1056 450.102 26.9233C449.628 26.7306 449.216 26.439 448.872 26.0483C448.539 25.6629 448.372 25.1421 448.372 24.4858C448.372 23.9442 448.508 23.4546 448.789 23.0067C449.081 22.564 449.518 22.2098 450.102 21.9442C450.695 21.6838 451.435 21.5483 452.31 21.5483C452.919 21.5483 453.518 21.6317 454.102 21.7983C454.695 21.965 455.211 22.1942 455.643 22.4858L455.247 23.4025C454.799 23.1004 454.32 22.8765 453.81 22.7358C453.31 22.5848 452.81 22.5067 452.31 22.5067C451.378 22.5067 450.674 22.689 450.206 23.0483C449.732 23.4129 449.497 23.8765 449.497 24.4442C449.497 24.8765 449.622 25.2254 449.872 25.4858C450.133 25.7515 450.461 25.9546 450.852 26.09C451.253 26.215 451.779 26.3608 452.435 26.5275C453.227 26.7254 453.857 26.9181 454.331 27.1108C454.815 27.2931 455.227 27.5796 455.56 27.965C455.904 28.34 456.081 28.8556 456.081 29.5067C456.081 30.0483 455.935 30.5431 455.643 30.9858C455.352 31.4338 454.898 31.7879 454.289 32.0483C453.69 32.2983 452.956 32.4233 452.081 32.4233Z" fill="white"/>
<path d="M469.651 21.6316V32.3399H468.568V23.7774L464.359 30.9858H463.839L459.63 23.8191V32.3399H458.547V21.6316H459.464L464.13 29.5691L468.734 21.6316H469.651Z" fill="white"/>
</g>
<defs>
<clipPath id="clip0_116_47">
<rect width="470" height="118.229" fill="white"/>
</clipPath>
</defs>
</svg>
