<svg xmlns="http://www.w3.org/2000/svg" xmlns:xlink="http://www.w3.org/1999/xlink" width="500" zoomAndPan="magnify" viewBox="0 0 375 374.999991" height="500" preserveAspectRatio="xMidYMid meet" version="1.0"><defs><g/><clipPath id="e929648ede"><path d="M 14.511719 11.171875 L 367.761719 11.171875 L 367.761719 363.671875 L 14.511719 363.671875 Z M 14.511719 11.171875 " clip-rule="nonzero"/></clipPath></defs><g clip-path="url(#e929648ede)"><path fill="#ffffff" d="M 367.386719 187.523438 C 367.386719 192.34375 367.199219 197.128906 366.8125 201.878906 C 365.3125 220.617188 360.863281 238.828125 353.519531 256.167969 C 344.636719 277.171875 331.925781 296.03125 315.734375 312.222656 C 313.519531 314.433594 311.265625 316.578125 308.957031 318.652344 C 301.738281 325.164062 294.042969 331.019531 285.914062 336.21875 L 265.023438 315.324219 L 129.707031 179.992188 L 129.707031 321.851562 C 130.996094 322.433594 132.28125 323.011719 133.585938 323.558594 C 151.773438 331.25 171.105469 335.152344 191.042969 335.152344 C 209.742188 335.152344 227.898438 331.722656 245.082031 324.957031 L 266.773438 346.824219 C 264.441406 347.933594 262.082031 348.996094 259.6875 350.007812 C 237.9375 359.203125 214.84375 363.867188 191.042969 363.867188 C 169.894531 363.867188 149.296875 360.179688 129.707031 352.90625 C 127.253906 351.996094 124.820312 351.027344 122.390625 350.007812 C 114.984375 346.867188 107.847656 343.265625 100.996094 339.183594 C 88.421875 331.714844 76.828125 322.691406 66.347656 312.210938 C 50.15625 296.019531 37.445312 277.160156 28.5625 256.160156 C 19.359375 234.417969 14.691406 211.324219 14.691406 187.523438 C 14.691406 163.726562 19.359375 140.628906 28.550781 118.878906 C 37.4375 97.875 50.148438 79.019531 66.339844 62.824219 C 82.53125 46.632812 101.390625 33.925781 122.390625 25.039062 C 144.140625 15.835938 167.238281 11.171875 191.042969 11.171875 C 204.148438 11.171875 217.039062 12.585938 229.601562 15.390625 C 239.390625 17.578125 248.976562 20.605469 258.316406 24.464844 C 258.78125 24.652344 259.234375 24.851562 259.695312 25.039062 C 280.699219 33.925781 299.558594 46.632812 315.75 62.824219 C 329.765625 76.839844 341.171875 92.851562 349.738281 110.519531 L 317.054688 110.519531 C 311 100.613281 303.769531 91.453125 295.449219 83.125 C 284.457031 72.140625 272.003906 63.058594 258.324219 56.058594 L 258.324219 245.722656 L 229.613281 216.792969 L 229.613281 44.960938 C 217.125 41.589844 204.21875 39.882812 191.054688 39.882812 C 171.113281 39.882812 151.78125 43.785156 133.59375 51.480469 C 116.011719 58.914062 100.222656 69.558594 86.65625 83.125 C 73.078125 96.683594 62.4375 112.480469 55 130.054688 C 47.308594 148.246094 43.40625 167.574219 43.40625 187.515625 C 43.40625 207.453125 47.308594 226.785156 55 244.976562 C 62.4375 262.554688 73.078125 278.34375 86.648438 291.902344 C 91.183594 296.441406 95.976562 300.652344 100.996094 304.527344 L 100.996094 110.679688 L 288.632812 298.320312 C 290.957031 296.269531 293.230469 294.132812 295.441406 291.921875 C 309 278.363281 319.652344 262.574219 327.089844 244.992188 C 332.921875 231.203125 336.574219 216.75 337.996094 201.890625 L 275.46875 201.890625 L 275.46875 173.175781 L 366.820312 173.175781 C 367.199219 177.917969 367.386719 182.703125 367.386719 187.523438 Z M 367.386719 187.523438 " fill-opacity="1" fill-rule="nonzero"/></g><g fill="#ffffff" fill-opacity="1"><g transform="translate(311.95226, 41.226875)"><g><path d="M 6.5625 0.125 C 5.457031 0.125 4.394531 -0.0507812 3.375 -0.40625 C 2.351562 -0.757812 1.5625 -1.226562 1 -1.8125 L 1.625 -3.03125 C 2.164062 -2.488281 2.882812 -2.050781 3.78125 -1.71875 C 4.6875 -1.382812 5.613281 -1.21875 6.5625 -1.21875 C 7.90625 -1.21875 8.910156 -1.460938 9.578125 -1.953125 C 10.253906 -2.441406 10.59375 -3.082031 10.59375 -3.875 C 10.59375 -4.46875 10.410156 -4.941406 10.046875 -5.296875 C 9.679688 -5.660156 9.234375 -5.9375 8.703125 -6.125 C 8.179688 -6.320312 7.445312 -6.535156 6.5 -6.765625 C 5.375 -7.046875 4.472656 -7.316406 3.796875 -7.578125 C 3.128906 -7.847656 2.554688 -8.253906 2.078125 -8.796875 C 1.609375 -9.335938 1.375 -10.070312 1.375 -11 C 1.375 -11.75 1.570312 -12.429688 1.96875 -13.046875 C 2.363281 -13.671875 2.972656 -14.171875 3.796875 -14.546875 C 4.628906 -14.921875 5.660156 -15.109375 6.890625 -15.109375 C 7.742188 -15.109375 8.578125 -14.988281 9.390625 -14.75 C 10.210938 -14.507812 10.925781 -14.1875 11.53125 -13.78125 L 11 -12.515625 C 10.363281 -12.929688 9.691406 -13.238281 8.984375 -13.4375 C 8.273438 -13.644531 7.578125 -13.75 6.890625 -13.75 C 5.578125 -13.75 4.585938 -13.492188 3.921875 -12.984375 C 3.265625 -12.484375 2.9375 -11.832031 2.9375 -11.03125 C 2.9375 -10.4375 3.113281 -9.957031 3.46875 -9.59375 C 3.832031 -9.226562 4.289062 -8.945312 4.84375 -8.75 C 5.394531 -8.5625 6.132812 -8.351562 7.0625 -8.125 C 8.15625 -7.851562 9.039062 -7.585938 9.71875 -7.328125 C 10.394531 -7.066406 10.96875 -6.664062 11.4375 -6.125 C 11.914062 -5.59375 12.15625 -4.867188 12.15625 -3.953125 C 12.15625 -3.203125 11.953125 -2.515625 11.546875 -1.890625 C 11.140625 -1.273438 10.515625 -0.785156 9.671875 -0.421875 C 8.828125 -0.0546875 7.789062 0.125 6.5625 0.125 Z M 6.5625 0.125 "/></g></g></g><g fill="#ffffff" fill-opacity="1"><g transform="translate(325.103889, 41.226875)"><g><path d="M 17.984375 -14.96875 L 17.984375 0 L 16.46875 0 L 16.46875 -11.984375 L 10.59375 -1.90625 L 9.84375 -1.90625 L 3.953125 -11.921875 L 3.953125 0 L 2.4375 0 L 2.4375 -14.96875 L 3.75 -14.96875 L 10.25 -3.875 L 16.6875 -14.96875 Z M 17.984375 -14.96875 "/></g></g></g></svg>