<svg width="383" height="65" viewBox="0 0 383 65" fill="none" xmlns="http://www.w3.org/2000/svg">
<g clip-path="url(#clip0_116_2)">
<path d="M37.3763 31.3876H42.0638V47.6731C39.8971 49.42 37.3398 50.7627 34.3971 51.6963C31.4492 52.6348 28.3451 53.1016 25.0846 53.1016C20.4596 53.1016 16.2982 52.168 12.6055 50.2911C8.90755 48.419 6.00651 45.8251 3.89714 42.5141C1.78255 39.2031 0.730469 35.4975 0.730469 31.3876C0.730469 27.2825 1.78255 23.5721 3.89714 20.2611C6.00651 16.9405 8.90755 14.3465 12.6055 12.4841C16.2982 10.612 20.4805 9.67358 25.1471 9.67358C28.6732 9.67358 31.9076 10.1933 34.8555 11.2328C37.7982 12.2627 40.2826 13.7931 42.3138 15.8336L39.2721 18.7018C35.6159 15.3668 30.9805 13.6968 25.3555 13.6968C21.6055 13.6968 18.2201 14.462 15.2096 15.9876C12.194 17.518 9.82422 19.6355 8.10547 22.3401C6.39714 25.0351 5.54297 28.0525 5.54297 31.3876C5.54297 34.7275 6.39714 37.7353 8.10547 40.4158C9.82422 43.1012 12.1784 45.2187 15.168 46.7683C18.168 48.3083 21.543 49.0783 25.293 49.0783C30.043 49.0783 34.069 47.9811 37.3763 45.7866V31.3876Z" fill="white"/>
<path d="M84.0339 20.646L66.6797 56.5857C65.2734 59.5887 63.6432 61.7159 61.7839 62.9767C59.9349 64.2472 57.7109 64.8825 55.1172 64.8825C53.4505 64.8825 51.888 64.6371 50.4297 64.151C48.9818 63.6601 47.737 62.9286 46.6797 61.9565L48.8464 58.7225C50.6068 60.3395 52.7266 61.148 55.2005 61.148C56.7839 61.148 58.1276 60.7437 59.2422 59.9352C60.3672 59.1267 61.4141 57.7407 62.388 55.7772L63.9089 52.678L48.388 20.646H53.2839L66.3464 47.9232L79.4297 20.646H84.0339Z" fill="white"/>
<path d="M102.797 20.3958C107.323 20.3958 110.797 21.4497 113.214 23.5528C115.641 25.6462 116.859 28.7454 116.859 32.8505V52.7358H112.359V47.7308C111.302 49.4007 109.755 50.7049 107.714 51.6385C105.672 52.5769 103.24 53.0438 100.422 53.0438C96.5469 53.0438 93.4635 52.1919 91.1719 50.4835C88.8802 48.7799 87.7344 46.518 87.7344 43.7075C87.7344 40.9884 88.8021 38.7939 90.9427 37.124C93.0781 35.4589 96.4844 34.6215 101.151 34.6215H112.172V32.658C112.172 29.9004 111.328 27.8022 109.651 26.3633C107.984 24.9147 105.547 24.188 102.339 24.188C100.13 24.188 98.0104 24.5249 95.9844 25.189C93.9687 25.8579 92.2344 26.7819 90.776 27.961L88.6719 24.727C90.4219 23.3554 92.526 22.2919 94.9844 21.5315C97.4531 20.7759 100.057 20.3958 102.797 20.3958ZM101.151 49.6173C103.786 49.6173 106.052 49.059 107.943 47.9425C109.828 46.826 111.24 45.209 112.172 43.0915V37.8555H101.276C95.3281 37.8555 92.3594 39.7709 92.3594 43.592C92.3594 45.4544 93.1302 46.9223 94.6719 48.0003C96.2135 49.0783 98.3698 49.6173 101.151 49.6173Z" fill="white"/>
<path d="M147.289 20.3958C151.648 20.3958 155.112 21.57 157.685 23.9185C160.268 26.2574 161.56 29.655 161.56 34.121V52.7358H156.872V34.5638C156.872 31.2287 155.966 28.6877 154.164 26.9408C152.357 25.1842 149.779 24.3035 146.435 24.3035C142.685 24.3035 139.716 25.3334 137.539 27.3835C135.372 29.4384 134.289 32.273 134.289 35.892V52.7358H129.602V20.646H134.081V26.5558C135.357 24.6067 137.128 23.0908 139.393 22.0128C141.669 20.9348 144.299 20.3958 147.289 20.3958Z" fill="white"/>
<path d="M213.898 10.0393V52.7358H209.878L180.169 18.0858V52.7358H175.273V10.0393H179.315L209.086 44.6893V10.0393H213.898Z" fill="white"/>
<path d="M258.198 38.0288H229.156C229.417 41.3686 230.802 44.0636 233.302 46.1138C235.812 48.1687 238.99 49.1938 242.823 49.1938C244.974 49.1938 246.953 48.8424 248.76 48.135C250.563 47.4179 252.125 46.3736 253.448 44.9973L256.094 47.7885C254.552 49.4969 252.62 50.8011 250.302 51.6963C247.995 52.5962 245.453 53.0438 242.677 53.0438C239.12 53.0438 235.969 52.3459 233.219 50.9455C230.469 49.5354 228.323 47.5912 226.781 45.1128C225.24 42.6391 224.469 39.8334 224.469 36.7005C224.469 33.5724 225.203 30.7667 226.677 28.2883C228.146 25.8002 230.167 23.8608 232.74 22.4748C235.323 21.0888 238.219 20.3958 241.427 20.3958C244.646 20.3958 247.531 21.0888 250.073 22.4748C252.625 23.8608 254.625 25.7858 256.073 28.2498C257.531 30.7041 258.26 33.5194 258.26 36.7005L258.198 38.0288ZM241.427 24.1303C238.078 24.1303 235.271 25.1216 233.01 27.0948C230.745 29.0583 229.458 31.6281 229.156 34.7948H253.781C253.474 31.6281 252.182 29.0583 249.906 27.0948C247.641 25.1216 244.812 24.1303 241.427 24.1303Z" fill="white"/>
<path d="M286.134 50.7917C285.243 51.5232 284.145 52.0814 282.842 52.4664C281.551 52.8514 280.202 53.0439 278.801 53.0439C275.535 53.0439 273.02 52.2306 271.259 50.5992C269.509 48.9725 268.634 46.6722 268.634 43.7077V24.3037H262.426V20.6462H268.634V13.6392H273.322V20.6462H283.884V24.3037H273.322V43.4574C273.322 45.3728 273.832 46.8262 274.863 47.8272C275.905 48.8282 277.389 49.3287 279.322 49.3287C280.29 49.3287 281.228 49.1891 282.134 48.9052C283.035 48.6116 283.811 48.2025 284.467 47.6732L286.134 50.7917Z" fill="white"/>
<path d="M299.124 26.9408C300.217 24.7848 301.858 23.1581 304.04 22.0513C306.217 20.9492 308.921 20.3958 312.145 20.3958V24.6115L311.02 24.5538C307.363 24.5538 304.504 25.5933 302.436 27.6723C300.363 29.7416 299.332 32.6484 299.332 36.3925V52.7358H294.645V20.646H299.124V26.9408Z" fill="white"/>
<path d="M333.266 20.3958C337.792 20.3958 341.266 21.4497 343.682 23.5528C346.109 25.6462 347.328 28.7454 347.328 32.8505V52.7358H342.828V47.7308C341.771 49.4007 340.224 50.7049 338.182 51.6385C336.141 52.5769 333.708 53.0438 330.891 53.0438C327.016 53.0438 323.932 52.1919 321.641 50.4835C319.349 48.7799 318.203 46.518 318.203 43.7075C318.203 40.9884 319.271 38.7939 321.411 37.124C323.547 35.4589 326.953 34.6215 331.62 34.6215H342.641V32.658C342.641 29.9004 341.797 27.8022 340.12 26.3633C338.453 24.9147 336.016 24.188 332.807 24.188C330.599 24.188 328.479 24.5249 326.453 25.189C324.437 25.8579 322.703 26.7819 321.245 27.961L319.141 24.727C320.891 23.3554 322.995 22.2919 325.453 21.5315C327.922 20.7759 330.526 20.3958 333.266 20.3958ZM331.62 49.6173C334.255 49.6173 336.521 49.059 338.411 47.9425C340.297 46.826 341.708 45.209 342.641 43.0915V37.8555H331.745C325.797 37.8555 322.828 39.7709 322.828 43.592C322.828 45.4544 323.599 46.9223 325.141 48.0003C326.682 49.0783 328.839 49.6173 331.62 49.6173Z" fill="white"/>
<path d="M359.658 13.0923C358.626 13.0923 357.642 12.9383 356.699 12.6303C355.751 12.3223 355.022 11.918 354.512 11.4175L355.074 10.378C355.585 10.84 356.251 11.2202 357.074 11.5138C357.908 11.7977 358.767 11.9373 359.658 11.9373C360.908 11.9373 361.835 11.7255 362.449 11.302C363.074 10.8785 363.387 10.3347 363.387 9.66577C363.387 9.15565 363.22 8.74177 362.887 8.43377C362.553 8.12577 362.137 7.88996 361.637 7.72152C361.147 7.5579 360.47 7.37502 359.595 7.18252C358.553 6.9419 357.72 6.7109 357.095 6.48952C356.48 6.25852 355.954 5.91202 355.512 5.45002C355.064 4.98802 354.845 4.3624 354.845 3.56352C354.845 2.90902 355.022 2.3219 355.387 1.79252C355.762 1.25352 356.329 0.830021 357.095 0.522021C357.871 0.204396 358.829 0.0407715 359.97 0.0407715C360.762 0.0407715 361.533 0.146647 362.283 0.348771C363.043 0.541271 363.704 0.820396 364.262 1.17652L363.762 2.25452C363.178 1.8984 362.553 1.63371 361.887 1.46527C361.23 1.28721 360.595 1.19577 359.97 1.19577C358.746 1.19577 357.824 1.41715 357.199 1.85027C356.585 2.27377 356.283 2.83202 356.283 3.52502C356.283 4.03996 356.449 4.44902 356.783 4.75702C357.126 5.06502 357.553 5.30565 358.053 5.46927C358.564 5.63771 359.251 5.81577 360.116 6.00827C361.126 6.23927 361.949 6.47027 362.574 6.70127C363.21 6.93227 363.746 7.27877 364.178 7.74077C364.621 8.19315 364.845 8.80915 364.845 9.58877C364.845 10.2336 364.647 10.8208 364.262 11.3598C363.887 11.8891 363.309 12.3126 362.533 12.6303C361.751 12.9383 360.793 13.0923 359.658 13.0923Z" fill="white"/>
<path d="M382.456 0.15625V12.9767H381.039V2.7165L375.581 11.3405H374.893L369.435 2.77425V12.9767H368.039V0.15625H369.247L375.268 9.66575L381.247 0.15625H382.456Z" fill="white"/>
</g>
<defs>
<clipPath id="clip0_116_2">
<rect width="383" height="65" fill="white"/>
</clipPath>
</defs>
</svg>
